<svg xmlns="http://www.w3.org/2000/svg" viewBox="0 0 185.66 69.58"><defs><style>.cls-1{fill:#00594e;}.cls-2{fill:#888b8d;}</style></defs><title>logo</title><g id="Layer_2" data-name="Layer 2"><g id="Layer_1-2" data-name="Layer 1"><path class="cls-1" d="M35.34,22.65,33.18,21l.16-5a.85.85,0,0,1,.18-.55,5.53,5.53,0,0,0,.3-6.4c-.42-.6-.67-1.54.61-1.74A6.81,6.81,0,0,1,42.24,12a6.5,6.5,0,0,1-2.53,7.33c-1.67,1.35-4.37,3.34-4.37,3.34"/><path class="cls-1" d="M24.62,9.12c.62-.57.86-1.87-1-1.84-1.28,0-7.08.08-7.51,6.64-.14,2.1.48,4.49,6.11,8.33,1.11.87,5,3.84,8.1,6.3.89.95,2.63,2.24,2.26,5.4-.09,1-.06,2.47,1.44,1.5,1.67-1,6.48-5.54,1.19-11.82-1.18-.9-7.5-5.73-8.9-6.68-1.14-1.17-2.79-2.5-2.47-5.57a6.23,6.23,0,0,1,.75-2.26"/><path class="cls-1" d="M25.52,25.78c0-.34-.29-.68-1-.44-1.38.46-5.76,6.28-1.44,10.63,1.1.94,3.81,3,6.1,4.7,1.06.69,3.61,2.07,2.89,5.91a.71.71,0,0,0,1.24.57c1.41-1,5.75-4.74,1.1-9.56-1.15-1.21-6.47-4.93-7.2-5.5A7.83,7.83,0,0,1,25.58,28c0-.29-.1-1.88-.06-2.26"/><path class="cls-1" d="M26,39.15c0-.31-.19-.85-1.07-.26a6.14,6.14,0,0,0-1.84,7.45c.79,1.89,4.91,4.14,7.45,6.17a4.21,4.21,0,0,1,1.08,3.55c-.09.39-.17,1.55,1.18.65,1.75-1.17,4-4.07,1.22-7.42-.76-.73-4.87-3.88-6-4.7a4.53,4.53,0,0,1-1.93-3.69A13.37,13.37,0,0,1,26,39.15"/><path class="cls-1" d="M26.52,50.64c0-.26-.33-1.63-1.41-.39-.64.8-3.44,4.24,0,7.6,1,.86,5.69,4,5.93,4.53s.46,1.07.15,3.41c0,.47.11,1,.81.52s3.25-2.45,1.75-6.43a15.23,15.23,0,0,0-3.68-3.49c-1.23-1-2.89-1.86-3.39-3.82a7.16,7.16,0,0,1-.19-1.93"/><path class="cls-1" d="M27,60.13c0,.33.25,5.89.25,5.89,0,.3-.22.86-.81.46a4.05,4.05,0,0,1-2.15-3.73,4,4,0,0,1,1.47-3c.65-.42,1.29-.07,1.24.4"/><path class="cls-2" d="M58.49,29.1A29.52,29.52,0,0,0,33.89,0V.8A25.79,25.79,0,0,1,35.73,51,4.62,4.62,0,0,1,36,52.6a4.36,4.36,0,0,1-.38,1.78,9.34,9.34,0,0,1-3.06,3.31l.71.6A29.5,29.5,0,0,0,58.49,29.1"/><path class="cls-2" d="M24.37,58.25A29.56,29.56,0,0,1,24.6,0V.8A25.79,25.79,0,0,0,3.73,26.12c0,11.9,8.78,22.11,19.74,25.08a7.09,7.09,0,0,0-.87,3.15,5.75,5.75,0,0,0,1.77,3.9"/><path class="cls-2" d="M32.16,20.1,26,15.45,25.83,12a1.1,1.1,0,0,1,.94-1.15l4.95,0c.38,0,.77.22.76,1.16s-.32,8.1-.32,8.1"/><path class="cls-2" d="M26.44,26.6A5.81,5.81,0,0,0,28.66,32c.59.47,3.26,2.46,3.26,2.46,0-.43.24-3.33-1.2-4.5-.72-.6-4.28-3.4-4.28-3.4"/><path class="cls-2" d="M26.85,40.05a4.19,4.19,0,0,0,1.85,3.86c.34.3,2.37,1.77,2.58,2,0-.47.4-2.3-.7-3.16-.63-.49-3.73-2.77-3.73-2.73"/><path class="cls-2" d="M27.32,51a4.2,4.2,0,0,0,1.47,3.38c.21.18,1.78,1.34,2.2,1.6a3.06,3.06,0,0,0-.91-2.83c-.55-.56-2.76-2.15-2.76-2.15"/><path class="cls-2" d="M27.76,60.69l3,2.17s0,.58,0,.88c0,.09-.08,4.91-.08,4.91,0,.43-.6.93-1.33.93S28,69.14,28,68.8s-.19-8.11-.19-8.11"/><path class="cls-1" d="M68.59,18.54a7.56,7.56,0,0,0,1.28.06c1.48,0,2.8-.58,2.8-2.11s-1.32-2-3-2H68.59Zm0-6.46h1.08c1.75,0,2.66-.71,2.66-1.79S71.48,8.61,70,8.61a5.81,5.81,0,0,0-1.4.11ZM65.33,6.54a25.86,25.86,0,0,1,4.26-.33A8.09,8.09,0,0,1,73.88,7a3.18,3.18,0,0,1,1.73,2.88A3.31,3.31,0,0,1,73.23,13v0a3.64,3.64,0,0,1,2.89,3.59,3.8,3.8,0,0,1-1.51,3.08c-1,.84-2.82,1.32-5.72,1.32a25.13,25.13,0,0,1-3.56-.22Z"/><path class="cls-1" d="M88.28,17.48c0,1.38,0,2.5.08,3.39H85.51l-.15-1.49H85.3A3.77,3.77,0,0,1,82,21.11c-2.15,0-3.71-1.34-3.71-4.6v-6.2h3.28V16c0,1.53.5,2.46,1.66,2.46a1.74,1.74,0,0,0,1.64-1.14,1.71,1.71,0,0,0,.14-.72V10.31h3.28Z"/><path class="cls-1" d="M91,13.68c0-1.32,0-2.42-.08-3.36h2.78l.13,1.44h.07a3.64,3.64,0,0,1,3.19-1.68A3,3,0,0,1,100,11.89h0a4.56,4.56,0,0,1,1.39-1.29,3.94,3.94,0,0,1,2-.52c2,0,3.56,1.42,3.56,4.57v6.22h-3.19V15.15c0-1.53-.5-2.42-1.55-2.42a1.64,1.64,0,0,0-1.54,1.15,3.61,3.61,0,0,0-.11.82v6.17H97.36V15c0-1.31-.47-2.22-1.53-2.22A1.67,1.67,0,0,0,94.3,13.9a2.18,2.18,0,0,0-.13.84v6.13H91Z"/><path class="cls-1" d="M109.62,13.79c0-1.55,0-2.57-.09-3.48h2.81l.13,2h.08a3.08,3.08,0,0,1,2.85-2.2,3.4,3.4,0,0,1,.69.06v3.09a4.63,4.63,0,0,0-.9-.09,2.1,2.1,0,0,0-2.25,1.66,4.1,4.1,0,0,0-.06.74v5.33H109.6Z"/><path class="cls-1" d="M127.75,17.48c0,1.38,0,2.5.09,3.39H125l-.15-1.49h-.07a3.75,3.75,0,0,1-3.3,1.73c-2.16,0-3.71-1.34-3.71-4.6v-6.2H121V16c0,1.53.5,2.46,1.66,2.46a1.74,1.74,0,0,0,1.64-1.14,1.72,1.72,0,0,0,.13-.72V10.31h3.28Z"/><path class="cls-1" d="M130.45,13.68c0-1.32,0-2.42-.09-3.36h2.85l.15,1.46h.07a3.79,3.79,0,0,1,3.26-1.7c2.16,0,3.77,1.44,3.77,4.55v6.24h-3.28V15c0-1.36-.47-2.29-1.66-2.29A1.79,1.79,0,0,0,133.84,14a2.3,2.3,0,0,0-.11.82v6.09h-3.28Z"/><path class="cls-1" d="M149.87,14.61a3,3,0,0,0-.06-.6A1.8,1.8,0,0,0,148,12.56c-1.21,0-2.16,1.08-2.16,3,0,1.57.78,2.8,2.14,2.8a1.8,1.8,0,0,0,1.75-1.31,3.29,3.29,0,0,0,.1-.89Zm3.28,4.73c0,2-.41,3.69-1.62,4.74a6.36,6.36,0,0,1-4.27,1.3,8.44,8.44,0,0,1-3.8-.8l.65-2.5a6.52,6.52,0,0,0,3.07.79,2.5,2.5,0,0,0,2.74-2.78v-.67h0A3.39,3.39,0,0,1,147,20.78c-2.61,0-4.46-2.11-4.46-5.14,0-3.4,2.18-5.56,4.79-5.56a3.17,3.17,0,0,1,2.89,1.49h0l.11-1.26h2.85c0,.7-.09,1.58-.09,3.16Z"/><path class="cls-1" d="M155.87,13.79c0-1.55,0-2.57-.08-3.48h2.8l.13,2h.09a3.06,3.06,0,0,1,2.85-2.2,3.54,3.54,0,0,1,.69.06v3.09a4.74,4.74,0,0,0-.91-.09,2.08,2.08,0,0,0-2.24,1.66,3.32,3.32,0,0,0-.07.74v5.33h-3.28Z"/><path class="cls-1" d="M169.49,15.88c-1.72,0-3.06.41-3.06,1.66a1.18,1.18,0,0,0,1.29,1.26,1.82,1.82,0,0,0,1.71-1.21,2.6,2.6,0,0,0,.06-.56Zm3.17,2.44a13.65,13.65,0,0,0,.18,2.55h-3l-.19-1.06h-.07a3.81,3.81,0,0,1-3,1.3,3.24,3.24,0,0,1-3.41-3.24c0-2.74,2.46-4,6.19-4V13.7c0-.56-.3-1.36-1.92-1.36a6.15,6.15,0,0,0-2.91.78L163.94,11a8.74,8.74,0,0,1,4.11-.95c3.51,0,4.61,2.07,4.61,4.55Z"/><path class="cls-1" d="M182.29,14.8a3,3,0,0,0,0-.6,2,2,0,0,0-1.92-1.6c-1.52,0-2.27,1.34-2.27,3s.89,2.89,2.25,2.89a2,2,0,0,0,1.92-1.57,4.27,4.27,0,0,0,.06-.74Zm3.28-9.26V17.72c0,1.2,0,2.44.09,3.15h-2.92l-.13-1.53h-.06a3.7,3.7,0,0,1-3.3,1.77c-2.51,0-4.51-2.14-4.51-5.42,0-3.54,2.2-5.61,4.72-5.61a3.26,3.26,0,0,1,2.79,1.18h0V5.54Z"/><rect class="cls-2" x="65.53" y="26.67" width="1.9" height="14.55"/><path class="cls-2" d="M71.27,33.6c0-1.1,0-2-.09-2.83h1.69l.1,1.7h0a3.86,3.86,0,0,1,3.45-1.94c1.45,0,3.69.86,3.69,4.45v6.23h-1.9v-6c0-1.68-.62-3.1-2.42-3.1A2.72,2.72,0,0,0,73.3,34a2.67,2.67,0,0,0-.13.88v6.3h-1.9Z"/><path class="cls-2" d="M86.08,28.26v2.51H88.8v1.44H86.08v5.64c0,1.29.36,2,1.42,2a3.73,3.73,0,0,0,1.1-.13l.09,1.44a5.17,5.17,0,0,1-1.68.26,2.72,2.72,0,0,1-2.06-.8,4.12,4.12,0,0,1-.73-2.74v-5.7H82.6V30.77h1.62V28.85Z"/><path class="cls-2" d="M98.06,35c0-1.19-.5-3.09-2.61-3.09-2,0-2.77,1.77-2.92,3.09Zm-5.55,1.35a3.33,3.33,0,0,0,3.56,3.63A7.19,7.19,0,0,0,99,39.42l.35,1.34a8.57,8.57,0,0,1-3.5.67c-3.19,0-5.13-2.14-5.13-5.27s1.87-5.65,4.92-5.65c3.41,0,4.29,3,4.29,4.92a5.33,5.33,0,0,1-.06.91Z"/><path class="cls-2" d="M102.89,34c0-1.23,0-2.29-.08-3.26h1.66l.08,2.05h.07a3.16,3.16,0,0,1,2.91-2.29,1.72,1.72,0,0,1,.52.07v1.77a4.57,4.57,0,0,0-.67,0,2.67,2.67,0,0,0-2.55,2.42,6.42,6.42,0,0,0-.06.91v5.56h-1.9Z"/><path class="cls-2" d="M110.64,33.6c0-1.1,0-2-.09-2.83h1.69l.1,1.7h0a3.85,3.85,0,0,1,3.45-1.94c1.45,0,3.69.86,3.69,4.45v6.23h-1.9v-6c0-1.68-.63-3.1-2.42-3.1A2.72,2.72,0,0,0,112.67,34a2.67,2.67,0,0,0-.13.88v6.3h-1.9Z"/><path class="cls-2" d="M128.75,35.88c-2.08,0-4.43.33-4.43,2.36a1.66,1.66,0,0,0,1.77,1.81,2.65,2.65,0,0,0,2.57-1.75,2.08,2.08,0,0,0,.09-.6Zm1.85,2.83a17.13,17.13,0,0,0,.15,2.5h-1.7l-.18-1.31h-.06a3.85,3.85,0,0,1-3.19,1.55,3,3,0,0,1-3.2-3c0-2.52,2.25-3.91,6.28-3.88v-.22a2.15,2.15,0,0,0-2.37-2.42,5,5,0,0,0-2.74.78l-.43-1.27a6.73,6.73,0,0,1,3.45-.91c3.21,0,4,2.18,4,4.27Z"/><path class="cls-2" d="M136.47,28.26v2.51h2.72v1.44h-2.72v5.64c0,1.29.37,2,1.43,2a3.73,3.73,0,0,0,1.1-.13l.09,1.44a5.19,5.19,0,0,1-1.69.26,2.71,2.71,0,0,1-2.05-.8,4.06,4.06,0,0,1-.73-2.74v-5.7H133V30.77h1.62V28.85Z"/><path class="cls-2" d="M142,30.77h1.9V41.21H142Zm.9-1.92a1.22,1.22,0,0,1,0-2.44,1.16,1.16,0,0,1,1.2,1.21,1.19,1.19,0,0,1-1.23,1.23Z"/><path class="cls-2" d="M152,40c1.81,0,3.17-1.71,3.17-4.08,0-1.77-.88-4-3.13-4S148.8,34,148.8,36c0,2.29,1.29,4,3.13,4m-.05,1.42c-2.8,0-5-2.07-5-5.37,0-3.5,2.31-5.55,5.18-5.55s5,2.18,5,5.35c0,3.89-2.69,5.57-5.17,5.57Z"/><path class="cls-2" d="M160.11,33.6c0-1.1,0-2-.09-2.83h1.68l.11,1.7h.05a3.85,3.85,0,0,1,3.45-1.94c1.45,0,3.69.86,3.69,4.45v6.23h-1.9v-6c0-1.68-.63-3.1-2.42-3.1A2.74,2.74,0,0,0,162.13,34a3,3,0,0,0-.12.88v6.3h-1.9Z"/><path class="cls-2" d="M178.21,35.88c-2.07,0-4.42.33-4.42,2.36a1.66,1.66,0,0,0,1.77,1.81,2.65,2.65,0,0,0,2.57-1.75,2.06,2.06,0,0,0,.08-.6Zm1.86,2.83a17.13,17.13,0,0,0,.15,2.5h-1.7l-.18-1.31h-.06a3.86,3.86,0,0,1-3.19,1.55,3,3,0,0,1-3.2-3c0-2.52,2.24-3.91,6.28-3.88v-.22a2.15,2.15,0,0,0-2.37-2.42,5,5,0,0,0-2.74.78l-.43-1.27a6.73,6.73,0,0,1,3.45-.91c3.21,0,4,2.18,4,4.27Z"/><rect class="cls-2" x="183.74" y="25.89" width="1.9" height="15.32"/><polygon class="cls-1" points="94.51 56.27 94.51 60.65 99.57 60.65 99.57 56.27 100.93 56.27 100.93 66.73 99.57 66.73 99.57 61.83 94.51 61.83 94.51 66.73 93.14 66.73 93.14 56.27 94.51 56.27"/><path class="cls-1" d="M107.87,65.8c2.14,0,3.35-2,3.35-4.34,0-2.08-1.09-4.25-3.34-4.25s-3.36,2.09-3.36,4.36,1.21,4.23,3.33,4.23m0,1.1c-2.78,0-4.71-2.14-4.71-5.3,0-3.32,2.05-5.5,4.85-5.5s4.71,2.19,4.71,5.29c0,3.59-2.18,5.51-4.84,5.51Z"/><path class="cls-1" d="M114.7,65.09a4.53,4.53,0,0,0,2.4.68c1.38,0,2.19-.71,2.19-1.78s-.56-1.54-2-2.07c-1.71-.62-2.76-1.52-2.76-3,0-1.63,1.35-2.84,3.38-2.84a4.6,4.6,0,0,1,2.3.52l-.38,1.1a3.85,3.85,0,0,0-2-.5c-1.42,0-2,.85-2,1.57,0,1,.64,1.46,2.08,2,1.77.69,2.66,1.53,2.66,3.07s-1.18,3-3.65,3a5.43,5.43,0,0,1-2.67-.68Z"/><path class="cls-1" d="M124.32,61.44a4.46,4.46,0,0,0,1.12.11c1.64,0,2.62-.81,2.62-2.22s-1-2.06-2.47-2.06a6.42,6.42,0,0,0-1.27.11Zm-1.35-5a14.31,14.31,0,0,1,2.59-.21,4.29,4.29,0,0,1,2.93.87,2.78,2.78,0,0,1,.93,2.18,3.05,3.05,0,0,1-.82,2.24,4.34,4.34,0,0,1-3.2,1.15,4.46,4.46,0,0,1-1.08-.1v4.19H123Z"/><rect class="cls-1" x="131.66" y="56.27" width="1.36" height="10.46"/><polygon class="cls-1" points="137.82 57.42 134.64 57.42 134.64 56.27 142.38 56.27 142.38 57.42 139.18 57.42 139.18 66.73 137.82 66.73 137.82 57.42"/><path class="cls-1" d="M148,62.39l-1-3c-.21-.69-.37-1.31-.52-1.91h0c-.14.6-.31,1.26-.51,1.89l-1,3Zm-3.43,1-1.08,3.29H142l3.55-10.46h1.63l3.57,10.46h-1.44l-1.12-3.29Z"/><polygon class="cls-1" points="152.76 56.27 154.13 56.27 154.13 65.6 158.6 65.6 158.6 66.73 152.76 66.73 152.76 56.27"/><rect class="cls-2" x="65.13" y="49.54" width="120.29" height="0.69"/></g></g></svg>